# xmcd
#
# Track frame offsets:
#	150
#	14222
#	32200
#	45184
#	62738
#	73979
#	86022
#	103283
#	129287
#	142341
#	156259
#	172465
#	182712
#	196880
#	219399
#	228660
#	241149
#	251582
#	263131
#	278051
#	288021
#
# Disc length: 4049
#
# Revision: 1
# Processed by: cddbd v1.5.1PL0 Copyright (c) Steve Scherf et al.
# Submitted via: audiograbber 1.80
# Normalized: r0:DSETVAR1
#
DISCID=440fcf15
DTITLE=Various Artist - Country - Volume 1
DYEAR=1900
DGENRE=
TTITLE0=Alan Jackson - Chasin' That Neon Rainbow
TTITLE1=Alan Jackson - Chattahoochie
TTITLE2=Alan Jackson - Don't Rock The Jukebox
TTITLE3=Alan Jackson - I'll Try
TTITLE4=Alan Jackson - I'm a Fool for You
TTITLE5=Alan Jackson - Little Bitty
TTITLE6=Alan Jackson - Livin' On Love
TTITLE7=Alan Jackson - (Live CMA Awards 2001)
TTITLE8=Allison Kraus and Allan Jackson - The Angels Cried
TTITLE9=Dolly Parton - I Will Always Love You
TTITLE10=Emmylou Harris and Don Williams - If I Needed You
TTITLE11=Esanta - A Holly Jolly Christmas
TTITLE12=John Prine and Emmy Lou Harris - Jambalaya
TTITLE13=Johnny Cash and Dave Matthews Band - For You
TTITLE14=Johnny Cash and June Carter - Daddy Sang Bass
TTITLE15=Johnny Cash and June Carter - Jackson
TTITLE16=Johnny Cash and Willie Nelson - Crazy
TTITLE17=Willie Nelson - On The Road Again (Live)
TTITLE18=Willie Nelson - Nothing I Can Do About It Now
TTITLE19=Willie Nelson, Merle Haggard and George Jones - I Gotta Get Drunk
TTITLE20=Willie Nelson - You Were Always On My Mind
EXTD=EBM-Músicas
EXTT0=
EXTT1=
EXTT2=
EXTT3=
EXTT4=
EXTT5=
EXTT6=
EXTT7=
EXTT8=
EXTT9=
EXTT10=
EXTT11=
EXTT12=
EXTT13=
EXTT14=
EXTT15=
EXTT16=
EXTT17=
EXTT18=
EXTT19=
EXTT20=
PLAYORDER=
